<mxfile host="app.diagrams.net" agent="Mozilla/5.0 (X11; Ubuntu; Linux x86_64; rv:133.0) Gecko/20100101 Firefox/133.0" version="25.0.3">
  <diagram name="Page-1" id="HZeWMZHjjV-aD80-YJbi">
    <mxGraphModel dx="1434" dy="761" grid="1" gridSize="10" guides="1" tooltips="1" connect="1" arrows="1" fold="1" page="1" pageScale="1" pageWidth="1100" pageHeight="850" math="0" shadow="0">
      <root>
        <mxCell id="0" />
        <mxCell id="1" parent="0" />
        <mxCell id="z2NJF6GOBtnvy6gMxqKv-1" value="Dockerfile" style="swimlane;fontStyle=0;childLayout=stackLayout;horizontal=1;startSize=30;horizontalStack=0;resizeParent=1;resizeParentMax=0;resizeLast=0;collapsible=1;marginBottom=0;whiteSpace=wrap;html=1;" vertex="1" parent="1">
          <mxGeometry x="340" y="345" width="170" height="120" as="geometry" />
        </mxCell>
        <mxCell id="z2NJF6GOBtnvy6gMxqKv-2" value="FROM" style="text;strokeColor=none;fillColor=none;align=left;verticalAlign=middle;spacingLeft=4;spacingRight=4;overflow=hidden;points=[[0,0.5],[1,0.5]];portConstraint=eastwest;rotatable=0;whiteSpace=wrap;html=1;" vertex="1" parent="z2NJF6GOBtnvy6gMxqKv-1">
          <mxGeometry y="30" width="170" height="30" as="geometry" />
        </mxCell>
        <mxCell id="z2NJF6GOBtnvy6gMxqKv-3" value="WORKDIR" style="text;strokeColor=none;fillColor=none;align=left;verticalAlign=middle;spacingLeft=4;spacingRight=4;overflow=hidden;points=[[0,0.5],[1,0.5]];portConstraint=eastwest;rotatable=0;whiteSpace=wrap;html=1;" vertex="1" parent="z2NJF6GOBtnvy6gMxqKv-1">
          <mxGeometry y="60" width="170" height="30" as="geometry" />
        </mxCell>
        <mxCell id="z2NJF6GOBtnvy6gMxqKv-4" value="&lt;div&gt;CMD&lt;/div&gt;&lt;div&gt;&lt;br&gt;&lt;/div&gt;" style="text;strokeColor=none;fillColor=none;align=left;verticalAlign=middle;spacingLeft=4;spacingRight=4;overflow=hidden;points=[[0,0.5],[1,0.5]];portConstraint=eastwest;rotatable=0;whiteSpace=wrap;html=1;" vertex="1" parent="z2NJF6GOBtnvy6gMxqKv-1">
          <mxGeometry y="90" width="170" height="30" as="geometry" />
        </mxCell>
        <mxCell id="z2NJF6GOBtnvy6gMxqKv-5" value="Docker image registry" style="rounded=0;whiteSpace=wrap;html=1;labelPosition=center;verticalLabelPosition=middle;align=center;verticalAlign=middle;" vertex="1" parent="1">
          <mxGeometry x="355" y="110" width="140" height="90" as="geometry" />
        </mxCell>
        <mxCell id="z2NJF6GOBtnvy6gMxqKv-6" value="Dev" style="rounded=1;whiteSpace=wrap;html=1;" vertex="1" parent="1">
          <mxGeometry x="720" y="128" width="120" height="160" as="geometry" />
        </mxCell>
        <mxCell id="z2NJF6GOBtnvy6gMxqKv-7" value="int" style="rounded=1;whiteSpace=wrap;html=1;" vertex="1" parent="1">
          <mxGeometry x="900" y="320" width="120" height="160" as="geometry" />
        </mxCell>
        <mxCell id="z2NJF6GOBtnvy6gMxqKv-8" value="prod" style="rounded=1;whiteSpace=wrap;html=1;" vertex="1" parent="1">
          <mxGeometry x="720" y="481" width="120" height="160" as="geometry" />
        </mxCell>
        <mxCell id="z2NJF6GOBtnvy6gMxqKv-10" value="Image" style="shape=cylinder3;whiteSpace=wrap;html=1;boundedLbl=1;backgroundOutline=1;size=15;" vertex="1" parent="1">
          <mxGeometry x="90" y="381" width="60" height="80" as="geometry" />
        </mxCell>
        <mxCell id="z2NJF6GOBtnvy6gMxqKv-11" value="" style="shape=flexArrow;endArrow=classic;startArrow=classic;html=1;rounded=0;entryX=0;entryY=0.5;entryDx=0;entryDy=0;" edge="1" parent="1" source="z2NJF6GOBtnvy6gMxqKv-10" target="z2NJF6GOBtnvy6gMxqKv-3">
          <mxGeometry width="100" height="100" relative="1" as="geometry">
            <mxPoint x="320" y="560" as="sourcePoint" />
            <mxPoint x="420" y="460" as="targetPoint" />
          </mxGeometry>
        </mxCell>
        <mxCell id="z2NJF6GOBtnvy6gMxqKv-12" value="docker build" style="edgeLabel;html=1;align=center;verticalAlign=middle;resizable=0;points=[];" vertex="1" connectable="0" parent="z2NJF6GOBtnvy6gMxqKv-11">
          <mxGeometry x="-0.1444" y="4" relative="1" as="geometry">
            <mxPoint as="offset" />
          </mxGeometry>
        </mxCell>
        <mxCell id="z2NJF6GOBtnvy6gMxqKv-15" value="" style="endArrow=classic;startArrow=classic;html=1;rounded=0;entryX=0;entryY=0.5;entryDx=0;entryDy=0;exitX=1.012;exitY=0.233;exitDx=0;exitDy=0;exitPerimeter=0;" edge="1" parent="1" source="z2NJF6GOBtnvy6gMxqKv-2" target="z2NJF6GOBtnvy6gMxqKv-6">
          <mxGeometry width="50" height="50" relative="1" as="geometry">
            <mxPoint x="520" y="420" as="sourcePoint" />
            <mxPoint x="570" y="370" as="targetPoint" />
            <Array as="points">
              <mxPoint x="640" y="380" />
              <mxPoint x="640" y="208" />
            </Array>
          </mxGeometry>
        </mxCell>
        <mxCell id="z2NJF6GOBtnvy6gMxqKv-16" value="" style="endArrow=classic;startArrow=classic;html=1;rounded=0;exitX=1.018;exitY=0.833;exitDx=0;exitDy=0;exitPerimeter=0;entryX=0;entryY=0.5;entryDx=0;entryDy=0;" edge="1" parent="1" source="z2NJF6GOBtnvy6gMxqKv-2" target="z2NJF6GOBtnvy6gMxqKv-7">
          <mxGeometry width="50" height="50" relative="1" as="geometry">
            <mxPoint x="520" y="420" as="sourcePoint" />
            <mxPoint x="570" y="370" as="targetPoint" />
            <Array as="points">
              <mxPoint x="800" y="400" />
            </Array>
          </mxGeometry>
        </mxCell>
        <mxCell id="z2NJF6GOBtnvy6gMxqKv-17" value="" style="endArrow=classic;startArrow=classic;html=1;rounded=0;entryX=0;entryY=0.5;entryDx=0;entryDy=0;exitX=1.012;exitY=0.3;exitDx=0;exitDy=0;exitPerimeter=0;" edge="1" parent="1" source="z2NJF6GOBtnvy6gMxqKv-3" target="z2NJF6GOBtnvy6gMxqKv-8">
          <mxGeometry width="50" height="50" relative="1" as="geometry">
            <mxPoint x="522" y="392" as="sourcePoint" />
            <mxPoint x="730" y="210" as="targetPoint" />
            <Array as="points">
              <mxPoint x="640" y="414" />
              <mxPoint x="640" y="560" />
            </Array>
          </mxGeometry>
        </mxCell>
        <mxCell id="z2NJF6GOBtnvy6gMxqKv-18" value="docker container run" style="text;html=1;align=center;verticalAlign=middle;whiteSpace=wrap;rounded=0;" vertex="1" parent="1">
          <mxGeometry x="690" y="330" width="150" height="30" as="geometry" />
        </mxCell>
        <mxCell id="z2NJF6GOBtnvy6gMxqKv-19" value="" style="shape=flexArrow;endArrow=classic;startArrow=classic;html=1;rounded=0;exitX=0.5;exitY=0;exitDx=0;exitDy=0;entryX=0.5;entryY=1;entryDx=0;entryDy=0;" edge="1" parent="1" source="z2NJF6GOBtnvy6gMxqKv-1" target="z2NJF6GOBtnvy6gMxqKv-5">
          <mxGeometry width="100" height="100" relative="1" as="geometry">
            <mxPoint x="320" y="300" as="sourcePoint" />
            <mxPoint x="430" y="210" as="targetPoint" />
          </mxGeometry>
        </mxCell>
        <mxCell id="z2NJF6GOBtnvy6gMxqKv-20" value="&lt;div&gt;docker push&lt;/div&gt;&lt;div&gt;&lt;br&gt;&lt;/div&gt;&lt;div&gt;docker pull&lt;br&gt;&lt;/div&gt;" style="edgeLabel;html=1;align=center;verticalAlign=middle;resizable=0;points=[];" vertex="1" connectable="0" parent="z2NJF6GOBtnvy6gMxqKv-19">
          <mxGeometry x="0.2138" y="-1" relative="1" as="geometry">
            <mxPoint as="offset" />
          </mxGeometry>
        </mxCell>
      </root>
    </mxGraphModel>
  </diagram>
</mxfile>
